<svg width="40" height="40" viewBox="0 0 40 40" fill="none" xmlns="http://www.w3.org/2000/svg">
<path d="M5.58813 14.9174C6.67396 10.2883 10.2883 6.67395 14.9174 5.58813C18.2604 4.80396 21.7396 4.80396 25.0826 5.58813C29.7117 6.67395 33.3261 10.2884 34.4119 14.9174C35.196 18.2604 35.196 21.7396 34.4119 25.0826C33.3261 29.7117 29.7117 33.3261 25.0826 34.4119C21.7396 35.196 18.2604 35.196 14.9174 34.4119C10.2884 33.3261 6.67396 29.7117 5.58813 25.0826C4.80396 21.7396 4.80396 18.2604 5.58813 14.9174Z" stroke="#363853" stroke-width="1.5"/>
<path d="M25.8333 20L14.1666 20M14.1666 20L18.3333 24.1667M14.1666 20L18.3333 15.8334" stroke="#363853" stroke-width="1.5" stroke-linecap="round" stroke-linejoin="round"/>
</svg>
