<svg width="40" height="45" viewBox="0 0 40 45" fill="none" xmlns="http://www.w3.org/2000/svg">
<path fill-rule="evenodd" clip-rule="evenodd" d="M20 0C8.91943 0 0 9.25731 0 20.5973C0 26.2269 2.19573 32.258 5.70867 36.8925C9.21357 41.5164 14.2359 45 20 45C25.7641 45 30.7864 41.5164 34.2913 36.8925C37.8043 32.258 40 26.2269 40 20.5973C40 9.25731 31.0806 0 20 0ZM12.9143 19.0385C12.9143 15.0875 16.0867 11.8846 20 11.8846C23.9133 11.8846 27.0857 15.0875 27.0857 19.0385C27.0857 22.9894 23.9133 26.1923 20 26.1923C16.0867 26.1923 12.9143 22.9894 12.9143 19.0385ZM20 14.6538C17.6015 14.6538 15.6571 16.6169 15.6571 19.0385C15.6571 21.46 17.6015 23.4231 20 23.4231C22.3985 23.4231 24.3429 21.46 24.3429 19.0385C24.3429 16.6169 22.3985 14.6538 20 14.6538Z" fill="#F55E61"/>
</svg>
