<svg width="60" height="60" viewBox="0 0 60 60" fill="none" xmlns="http://www.w3.org/2000/svg">
<path fill-rule="evenodd" clip-rule="evenodd" d="M23.2936 8.31201C15.8562 9.99345 10.0203 15.7093 8.22983 23.0661C7.25078 27.0888 7.25973 31.3217 8.23878 35.3444C10.0573 42.8162 15.4065 49.0345 22.5823 51.932L22.8951 52.0583C26.0004 53.3121 29.5576 51.802 30.8318 48.7254C31.1825 47.8787 32.0175 47.3169 32.9402 47.3169H35.7497C43.3911 47.3169 50.0384 42.1248 51.832 34.7552C52.7227 31.0956 52.7227 27.2782 51.832 23.6185L51.5968 22.6522C49.868 15.549 44.2333 10.0301 37.0521 8.4066L36.0433 8.17853C32.0415 7.27382 27.8859 7.27382 23.8841 8.17853L23.2936 8.31201ZM21.2549 20.9167C20.2929 20.9167 19.5131 21.6904 19.5131 22.6448C19.5131 23.5992 20.2929 24.3729 21.2549 24.3729H37.221C38.183 24.3729 38.9628 23.5992 38.9628 22.6448C38.9628 21.6904 38.183 20.9167 37.221 20.9167H21.2549ZM24.1578 29.5571C23.1959 29.5571 22.416 30.3308 22.416 31.2852C22.416 32.2396 23.1959 33.0133 24.1578 33.0133H34.3181C35.28 33.0133 36.0599 32.2396 36.0599 31.2852C36.0599 30.3308 35.28 29.5571 34.3181 29.5571H24.1578Z" fill="#F55E61"/>
</svg>
