<svg width="60" height="60" viewBox="0 0 60 60" fill="none" xmlns="http://www.w3.org/2000/svg">
<path fill-rule="evenodd" clip-rule="evenodd" d="M22.5744 8.35925C27.4585 7.21358 32.5415 7.21358 37.4256 8.35925C44.479 10.0137 49.9863 15.521 51.6408 22.5744C52.7864 27.4585 52.7864 32.5415 51.6408 37.4256C49.9863 44.479 44.479 49.9863 37.4256 51.6408C32.5415 52.7864 27.4585 52.7864 22.5744 51.6407C15.521 49.9863 10.0137 44.479 8.35925 37.4256C7.21358 32.5415 7.21358 27.4585 8.35925 22.5744C10.0137 15.521 15.521 10.0137 22.5744 8.35925ZM22.9516 29.9999C22.9516 31.3217 21.8507 32.3931 20.4927 32.3931C19.1347 32.3931 18.0339 31.3217 18.0339 29.9999C18.0339 28.6782 19.1347 27.6067 20.4927 27.6067C21.8507 27.6067 22.9516 28.6782 22.9516 29.9999ZM32.4588 29.9999C32.4588 31.3217 31.3579 32.3931 29.9999 32.3931C28.642 32.3931 27.5411 31.3217 27.5411 29.9999C27.5411 28.6782 28.642 27.6067 29.9999 27.6067C31.3579 27.6067 32.4588 28.6782 32.4588 29.9999ZM39.5072 32.3931C40.8652 32.3931 41.966 31.3217 41.966 29.9999C41.966 28.6782 40.8652 27.6067 39.5072 27.6067C38.1492 27.6067 37.0483 28.6782 37.0483 29.9999C37.0483 31.3217 38.1492 32.3931 39.5072 32.3931Z" fill="#F55E61"/>
</svg>
